<svg xmlns="http://www.w3.org/2000/svg" viewBox="0 0 512 512" width="100%" height="100%">
  <circle cx="256" cy="256" r="256" fill="#172c33"/>
  <g stroke="#ffffff" stroke-width="28" stroke-linecap="round" stroke-linejoin="round" fill="none" transform="translate(75, 75) scale(0.6)">
    <path d="M 60 452 L 440 72" />
    <path d="M 60 452 L 120 392" stroke-width="44" />
    <circle cx="180" cy="380" r="32" stroke-width="26" />
    <path d="M 170 330 A 45 45 0 0 1 230 270" stroke-width="24" />
    <path d="M 250 250 A 45 45 0 0 1 310 190" stroke-width="24" />
    <path d="M 330 170 A 45 45 0 0 1 390 110" stroke-width="24" />
    <path d="M 440 72 L 440 370" stroke-width="22" />
    <path d="M 440 370 C 440 440, 370 440, 370 395 C 370 375, 390 370, 395 385" stroke-width="24" />
  </g>
</svg>
